<svg xmlns="http://www.w3.org/2000/svg" viewBox="0 0 216.922 230.16"><g data-name="Layer 2"><g data-name="ART"><path d="M185.293 91.997a1.775 1.775 0 01-1.586-2.566l29.094-58.35a6.473 6.473 0 00-4.02-8.859l-62.593-18.39a6.48 6.48 0 00-7.63 3.194l-24.227 45.687a1.774 1.774 0 11-3.134-1.663l24.221-45.675A10.021 10.021 0 01147.203.432l62.592 18.391a10.02 10.02 0 016.203 13.792l-29.116 58.398a1.774 1.774 0 01-1.59.984z" fill="#3e4147"/><path fill="#af96c1" d="M18.83 93.186l-4.141-7.593 98.075-33.711 77.019 30.724-96.257 38.767L18.83 93.186z"/><path d="M93.535 122.135L18.333 93.757l-4.668-8.562 99.117-34.07.244.097 78.664 31.381zM19.327 92.614l74.191 27.998 94.358-38.003-75.13-29.97-97.032 33.35z" fill="#3e4147"/><path d="M139.2 101.676c.67-2.252 19.736-38.043 19.736-38.043l-15.822-29.205s-38.955-6.776-53.605 19.596l14.34 52.827z" fill="#fdbe2a"/><path d="M103.849 107.56a.71.71 0 01-.685-.524L88.826 54.21a.71.71 0 01.065-.53c14.723-26.505 53.952-20.02 54.346-19.952a.711.711 0 01.502.362l15.822 29.205a.71.71 0 01.002.672c-5.293 9.937-19.149 36.12-19.681 37.91a.71.71 0 01-.578.5l-35.351 5.175a.736.736 0 01-.103.008zM90.27 54.118l14.1 51.94 34.321-5.025c1.903-4.429 17.47-33.695 19.44-37.398l-15.473-28.561c-3.809-.563-38.766-5.008-52.388 19.044zm48.93 47.557z" fill="#3e4147"/><path d="M112.575 65.498a39.511 39.511 0 00-5.41-27.153 36.248 36.248 0 00-17.656 15.68l14.34 52.826 13.59-1.99c5.247-33.603-4.864-39.363-4.864-39.363z" fill="#e8a91b"/><path d="M140.62 37.668s-17.549 39.71-21.481 55.497" fill="#fdbe2a"/><path d="M119.14 94.373a1.208 1.208 0 01-1.173-1.5c3.913-15.707 20.83-54.068 21.548-55.694a1.208 1.208 0 012.21.977c-.176.395-17.552 39.795-21.415 55.3a1.208 1.208 0 01-1.17.917z" fill="#3e4147"/><ellipse cx="141.752" cy="55.247" rx="5.244" ry="3.737" transform="rotate(-81.577 141.752 55.247)" fill="#e8a91b"/><ellipse cx="144.614" cy="71.922" rx="6.846" ry="4.754" transform="rotate(-81.577 144.614 71.922)" fill="#e8a91b"/><ellipse cx="132.783" cy="78.401" rx="4.254" ry="3.28" transform="rotate(-81.577 132.783 78.401)" fill="#e8a91b"/><path d="M103.848 108.057a1.206 1.206 0 01-1.164-.89L88.344 54.34a1.206 1.206 0 01.11-.903c14.895-26.813 54.468-20.268 54.867-20.2a1.209 1.209 0 01.855.614l15.822 29.205a1.207 1.207 0 01.004 1.143c-7.616 14.297-19.132 36.168-19.645 37.82a1.225 1.225 0 01-.982.85l-35.351 5.175a1.192 1.192 0 01-.176.012zm-13.043-53.87l13.929 51.314 33.616-4.921c2.331-5.184 16.41-31.672 19.216-36.943l-15.227-28.106c-4.779-.675-38.256-4.477-51.534 18.655zm48.396 47.488z" fill="#3e4147"/><ellipse cx="91.556" cy="70.388" rx="19.763" ry="20.345" fill="#cedd3e"/><path d="M91.556 91.94c-11.563 0-20.97-9.669-20.97-21.553s9.407-21.551 20.97-21.551c11.564 0 20.971 9.668 20.971 21.551S103.12 91.94 91.557 91.94zm0-40.69C81.324 51.25 73 59.835 73 70.387s8.324 19.138 18.556 19.138 18.556-8.585 18.556-19.138-8.324-19.137-18.556-19.137z" fill="#3e4147"/><path d="M100.993 63.619c-7.4 0-8.139-6.04-8.146-6.104a1.208 1.208 0 012.4-.265c.059.46.739 4.383 6.715 3.915a1.208 1.208 0 01.189 2.408q-.604.047-1.158.046z" fill="#3e4147"/><ellipse cx="110.351" cy="95.695" rx="19.763" ry="20.345" fill="#d85927"/><path d="M110.35 117.247c-11.563 0-20.97-9.668-20.97-21.552 0-11.885 9.407-21.553 20.97-21.553s20.972 9.668 20.972 21.553c0 11.884-9.408 21.552-20.971 21.552zm0-40.69c-10.231 0-18.556 8.585-18.556 19.138s8.325 19.138 18.557 19.138 18.556-8.585 18.556-19.138-8.325-19.139-18.556-19.139z" fill="#3e4147"/><ellipse cx="110.309" cy="85.153" rx="4.36" ry="3.151" fill="#d85927"/><path d="M110.309 89.511c-3.122 0-5.567-1.914-5.567-4.358 0-2.443 2.445-4.357 5.567-4.357s5.567 1.914 5.567 4.357c0 2.444-2.445 4.358-5.567 4.358zm0-6.301c-1.857 0-3.152 1.024-3.152 1.943 0 .92 1.295 1.944 3.152 1.944s3.152-1.024 3.152-1.944c0-.919-1.295-1.943-3.152-1.943z" fill="#3e4147"/><path d="M168.589 126.67l14.763-41.415-3.972-23.833 6.174-16.115a54.573 54.573 0 00-25.54-7.476l-5.058 15.443-15.296 15.572-17.164 44.654s30.63 30.762 46.093 13.17z" fill="#4495d7"/><path d="M156.526 133.31c-15.824 0-34.105-18.175-34.885-18.959a1.207 1.207 0 01-.272-1.285l17.164-44.654a1.196 1.196 0 01.265-.412l15.098-15.371 4.97-15.173a1.264 1.264 0 011.182-.831 55.279 55.279 0 0126.16 7.668 1.208 1.208 0 01.473 1.446l-6.056 15.808 3.918 23.51a1.208 1.208 0 01-.053.604l-14.764 41.415a1.192 1.192 0 01-.23.391 16.54 16.54 0 01-12.34 5.833q-.314.01-.63.01zm-32.617-20.122c3.219 3.07 19.693 18.11 33.175 17.698a14.191 14.191 0 0010.446-4.842l14.58-40.899-3.92-23.525a1.204 1.204 0 01.063-.63l5.81-15.164a54.494 54.494 0 00-23.185-6.753l-4.775 14.576a1.201 1.201 0 01-.286.47l-15.12 15.393zm44.68 13.483z" fill="#3e4147"/><path d="M161.629 29.777l-3.437 10.306c-.67 2.005 4.784 5.631 12.18 8.097s13.934 2.84 14.603.835l3.437-10.307z" fill="#d8e9f7"/><path d="M181.212 51.512q-.516 0-1.084-.032a41.084 41.084 0 01-10.137-2.154c-5.4-1.8-14.202-5.855-12.945-9.625l3.437-10.307a1.21 1.21 0 01.606-.698 1.226 1.226 0 01.922-.065l26.783 8.932a1.207 1.207 0 01.764 1.528l-3.437 10.305c-.47 1.406-2.119 2.116-4.909 2.116zm-18.82-20.209l-3.055 9.162c.007.763 3.4 3.896 11.417 6.57 8.016 2.673 12.612 2.204 13.09 1.568l3.041-9.13z" fill="#3e4147"/><ellipse cx="175.021" cy="34.242" rx="3.828" ry="14.117" transform="rotate(-71.558 175.02 34.242)" fill="#d8e9f7"/><path d="M184.65 41.206q-.517 0-1.085-.032a41.084 41.084 0 01-10.137-2.155 41.101 41.101 0 01-9.402-4.361c-2.877-1.913-4.07-3.685-3.543-5.264.528-1.58 2.545-2.283 5.993-2.083a46.168 46.168 0 0119.539 6.516c2.877 1.913 4.07 3.683 3.543 5.263-.47 1.406-2.119 2.116-4.909 2.116zM165.37 29.694c-1.53 0-2.416.232-2.61.494.02.735 3.413 3.867 11.43 6.54 7.904 2.636 12.482 2.218 13.067 1.595-.095-.85-3.506-3.932-11.408-6.566a34.675 34.675 0 00-10.479-2.063z" fill="#3e4147"/><path d="M113.27 140.662c2.575 1.294-38.475-99.238-64.127-93.995a9.736 9.736 0 00-1.52.473c-4.24 1.62-23.294 9.64-24.147 23.183a14.301 14.301 0 002.715 9.08c5.586 7.93 25.469 30.32 87.079 61.26z" fill="#f3783c"/><path d="M113.29 141.868a1.256 1.256 0 01-.562-.127C51.13 110.807 31 88.328 25.204 80.098a15.559 15.559 0 01-2.934-9.85c.386-6.12 4.189-11.828 11.303-16.966a62.81 62.81 0 0113.619-7.27 10.739 10.739 0 011.71-.528c11.09-2.275 25.493 12.541 42.803 44.019 7.796 14.177 13.795 27.533 16.677 34.233 7.083 16.468 6.393 17.185 5.839 17.76a1.303 1.303 0 01-.931.372zm-62.175-94.19a7.614 7.614 0 00-3.06.59C44.293 49.706 25.492 57.527 24.68 70.4a13.139 13.139 0 002.497 8.308c5.623 7.983 25.048 29.658 84.454 59.775-4.014-12.12-29.324-70.244-50.575-86.576-3.659-2.812-6.994-4.23-9.942-4.23z" fill="#3e4147"/><path d="M41.19 84.653a1.208 1.208 0 01-.447-2.33C54.132 76.99 60.664 70.444 63.787 65.89c3.354-4.891 3.59-8.584 3.591-8.62a1.207 1.207 0 012.412.112c-.029.665-1.035 16.382-28.154 27.184a1.22 1.22 0 01-.446.086zM48.335 102.308a1.207 1.207 0 01-.07-2.412c.149-.009 14.968-1.061 28.419-15.744a1.207 1.207 0 111.78 1.63c-14.149 15.446-29.416 16.488-30.059 16.524-.023.002-.047.002-.07.002zM81.698 100.846a1.208 1.208 0 01-.561-2.277c7.064-3.701 9.36-7.401 9.383-7.438a1.208 1.208 0 012.076 1.234c-.103.173-2.596 4.287-10.34 8.343a1.2 1.2 0 01-.558.138z" fill="#3e4147"/><path d="M37.491 61.823a12.097 12.097 0 004.506-3.403 3.716 3.716 0 00.62-3.24c-1.026-3.78-3.626-14.135-3.555-21.82a2.134 2.134 0 00-1.937-2.16 7.77 7.77 0 00-3.539.478 2.13 2.13 0 00-1.352 2.142c.198 2.608.704 8.154 1.517 9.78 0 0-9.88-13.463-13.186-24.287a1.97 1.97 0 00-2.079-1.386c-2.885.279-12.27 3.083-16.968 11.006a2.39 2.39 0 00.463 2.944l17.387 14.815a8.888 8.888 0 00-3.966 7.79 1.44 1.44 0 001.145 1.38 89.085 89.085 0 0117.824 5.956 3.715 3.715 0 003.12.005z" fill="#cedd3e"/><path d="M35.935 63.373a4.91 4.91 0 01-2.073-.46 87.671 87.671 0 00-17.57-5.871 2.657 2.657 0 01-2.097-2.55 10.275 10.275 0 013.258-7.845L1.198 32.796a3.603 3.603 0 01-.719-4.479c4.687-7.904 14.078-11.224 17.891-11.593a3.206 3.206 0 013.35 2.237c2.006 6.568 6.548 14.223 9.696 19.07-.16-1.384-.287-2.816-.386-4.12a3.321 3.321 0 012.115-3.358 8.84 8.84 0 014.088-.555 3.327 3.327 0 013.037 3.373c-.07 7.47 2.433 17.518 3.513 21.493a4.955 4.955 0 01-.828 4.292 13.317 13.317 0 01-4.959 3.764 4.923 4.923 0 01-2.06.453zM18.68 19.125a.686.686 0 00-.077.004c-3.279.317-11.873 3.381-16.046 10.42a1.195 1.195 0 00.209 1.409L20.15 45.773a1.208 1.208 0 01-.19 1.97 7.663 7.663 0 00-3.351 6.728.234.234 0 00.19.21 90.234 90.234 0 0118.081 6.042 2.493 2.493 0 002.105.003 10.914 10.914 0 004.053-3.04 2.524 2.524 0 00.414-2.19c-1.106-4.07-3.67-14.377-3.598-22.148a.927.927 0 00-.84-.946 6.549 6.549 0 00-2.989.4.918.918 0 00-.588.926c.362 4.762.896 8.337 1.393 9.332a1.208 1.208 0 01-2.053 1.255c-.408-.556-10.04-13.754-13.368-24.65a.758.758 0 00-.731-.54z" fill="#3e4147"/><path d="M176.944 190.898c-2.395 6.389-2.095 14.06-12.97 8.331-4.77-1.787-6.694-8.415-4.3-14.804s8.202-10.118 12.97-8.33c11.077 3.859 6.695 8.415 4.3 14.803z" fill="#865da5"/><path d="M170.198 202.252a15.016 15.016 0 01-6.638-2.104 9.178 9.178 0 01-5.389-6.314 16.478 16.478 0 016.555-17.487 9.166 9.166 0 018.272-1.195c4.139 1.442 6.503 3.1 7.419 5.213 1.102 2.54-.09 5.232-1.354 8.081-.4.902-.814 1.836-1.177 2.806-.391 1.044-.714 2.143-1.026 3.206-.945 3.217-1.838 6.257-4.485 7.377a5.52 5.52 0 01-2.177.417zm-.055-25.597a8.057 8.057 0 00-4.33 1.385 14.478 14.478 0 00-5.71 15.232 7.207 7.207 0 004.224 5.015l.115.052c3.306 1.743 5.644 2.28 7.15 1.642 1.768-.749 2.495-3.223 3.337-6.09.322-1.097.655-2.232 1.072-3.346.385-1.024.81-1.985 1.223-2.914 1.125-2.54 2.097-4.734 1.347-6.465-.668-1.54-2.714-2.887-6.257-4.121a6.163 6.163 0 00-2.171-.39z" fill="#3e4147"/><ellipse cx="172.621" cy="189.614" rx="12.353" ry="9.222" transform="rotate(-69.453 172.62 189.614)" fill="#9569b8"/><path d="M170.75 202.63a7.993 7.993 0 01-2.818-.506 9.164 9.164 0 01-5.45-6.338 15.655 15.655 0 01.562-9.762c2.585-6.896 8.985-10.898 14.265-8.92a9.164 9.164 0 015.45 6.338 15.655 15.655 0 01-.561 9.762c-2.138 5.702-6.883 9.426-11.447 9.426zm3.703-24.027c-3.728 0-7.689 3.23-9.525 8.128a13.636 13.636 0 00-.513 8.493 7.207 7.207 0 004.223 5.015c4.24 1.588 9.48-1.883 11.676-7.742a13.636 13.636 0 00.512-8.493 7.207 7.207 0 00-4.223-5.015 6.103 6.103 0 00-2.15-.386z" fill="#3e4147"/><ellipse cx="173.665" cy="190.274" rx="4.756" ry="3.55" transform="rotate(-69.453 173.665 190.274)" fill="#865da5"/><path d="M172.963 195.909a3.764 3.764 0 01-1.32-.24 4.133 4.133 0 01-2.475-2.846 6.957 6.957 0 012.783-7.425 4.132 4.132 0 013.737-.52c2.352.883 3.359 4.021 2.244 6.996a6.649 6.649 0 01-2.553 3.277 4.478 4.478 0 01-2.416.758zm1.411-9.254a2.5 2.5 0 00-1.335.436 4.957 4.957 0 00-1.938 5.17 1.963 1.963 0 003.191 1.197 4.628 4.628 0 001.755-2.291c.714-1.903.225-3.92-1.066-4.404a1.715 1.715 0 00-.607-.108z" fill="#3e4147"/><path d="M128.975 162.273c-2.395 6.388-2.095 14.059-12.97 8.33-4.77-1.787-6.694-8.415-4.3-14.803s8.202-10.119 12.971-8.331c11.076 3.86 6.694 8.415 4.3 14.804z" fill="#357fc1"/><path d="M122.225 173.33a14.84 14.84 0 01-6.551-2.098c-5.046-1.886-7.16-8.937-4.633-15.682 2.528-6.744 8.755-10.673 13.884-8.746 4.061 1.415 6.37 3.023 7.25 5.054 1.05 2.422-.116 5.055-1.352 7.842-.402.907-.817 1.845-1.183 2.822-.396 1.055-.72 2.16-1.034 3.227-.924 3.148-1.797 6.12-4.315 7.186a5.23 5.23 0 01-2.066.395zm-.043-25.597c-3.86 0-7.933 3.302-9.812 8.316-2.253 6.011-.511 12.243 3.883 13.891 3.47 1.82 5.892 2.361 7.485 1.689 1.899-.803 2.644-3.341 3.507-6.28.32-1.092.652-2.221 1.065-3.325.381-1.015.806-1.974 1.216-2.898 1.154-2.604 2.15-4.853 1.347-6.703-.702-1.62-2.805-3.02-6.43-4.285a6.414 6.414 0 00-2.261-.405z" fill="#3e4147"/><ellipse cx="124.652" cy="160.988" rx="12.353" ry="9.222" transform="rotate(-69.453 124.652 160.988)" fill="#9569b8"/><path d="M122.782 174.005a7.993 7.993 0 01-2.819-.506c-5.28-1.98-7.473-9.202-4.888-16.1 2.585-6.898 8.987-10.9 14.266-8.92 5.28 1.98 7.473 9.201 4.887 16.1-2.137 5.702-6.882 9.426-11.446 9.426zm3.701-24.028c-3.728 0-7.688 3.23-9.524 8.128-2.196 5.859-.531 11.92 3.71 13.509 4.243 1.59 9.479-1.884 11.676-7.742 2.195-5.859.53-11.92-3.71-13.509a6.105 6.105 0 00-2.152-.386z" fill="#3e4147"/><ellipse cx="125.696" cy="161.649" rx="4.756" ry="3.55" transform="rotate(-69.453 125.696 161.649)" fill="#357fc1"/><path d="M124.992 166.986a3.43 3.43 0 01-1.214-.22c-2.2-.824-3.128-3.79-2.07-6.612 1.058-2.821 3.708-4.447 5.906-3.623 2.2.824 3.128 3.79 2.071 6.613a6.354 6.354 0 01-2.435 3.132 4.186 4.186 0 01-2.258.71zm1.402-9.256c-1.3 0-2.7 1.165-3.357 2.922-.784 2.089-.228 4.236 1.239 4.786a2.462 2.462 0 002.207-.356 4.925 4.925 0 001.873-2.436c.783-2.09.227-4.237-1.24-4.787a2.06 2.06 0 00-.722-.129z" fill="#3e4147"/><path d="M108.453 218.428c-2.394 6.389-2.095 14.06-12.97 8.331-4.77-1.787-6.694-8.415-4.3-14.804s8.202-10.118 12.971-8.33c11.076 3.859 6.694 8.415 4.3 14.803z" fill="#865da5"/><path d="M101.707 229.781a15.012 15.012 0 01-6.638-2.103c-5.237-2.012-7.403-9.205-4.827-16.076a15.65 15.65 0 015.993-7.724 9.17 9.17 0 018.272-1.196c4.139 1.443 6.503 3.101 7.42 5.213 1.1 2.541-.092 5.233-1.354 8.081-.4.903-.815 1.836-1.178 2.806-.391 1.044-.714 2.144-1.026 3.206-.945 3.217-1.837 6.256-4.485 7.376a5.52 5.52 0 01-2.177.417zm-.055-25.596a8.057 8.057 0 00-4.33 1.385 13.637 13.637 0 00-5.196 6.74c-2.196 5.857-.532 11.917 3.71 13.507l.116.052c3.306 1.741 5.644 2.281 7.149 1.641 1.769-.748 2.496-3.223 3.337-6.09.322-1.096.656-2.23 1.073-3.345.384-1.024.81-1.984 1.222-2.914 1.125-2.54 2.098-4.734 1.347-6.465-.667-1.54-2.714-2.887-6.257-4.121a6.163 6.163 0 00-2.171-.39z" fill="#3e4147"/><ellipse cx="104.13" cy="217.144" rx="12.353" ry="9.222" transform="rotate(-69.453 104.13 217.144)" fill="#9569b8"/><path d="M102.26 230.16a7.994 7.994 0 01-2.819-.506c-5.28-1.98-7.473-9.202-4.888-16.1a15.653 15.653 0 015.994-7.724 8.684 8.684 0 0113.721 5.142 15.655 15.655 0 01-.561 9.762c-2.137 5.702-6.883 9.426-11.447 9.426zm3.708-24.026a8.067 8.067 0 00-4.334 1.388 13.644 13.644 0 00-5.197 6.74c-2.196 5.857-.531 11.917 3.71 13.507 4.242 1.585 9.48-1.883 11.676-7.742a13.636 13.636 0 00.512-8.493 7.207 7.207 0 00-4.222-5.015 6.087 6.087 0 00-2.145-.385z" fill="#3e4147"/><ellipse cx="105.174" cy="217.804" rx="4.756" ry="3.55" transform="rotate(-69.453 105.174 217.804)" fill="#865da5"/><path d="M104.472 223.44a3.764 3.764 0 01-1.32-.24 4.133 4.133 0 01-2.475-2.847 6.959 6.959 0 012.783-7.426 3.96 3.96 0 016.212 2.329 6.959 6.959 0 01-2.783 7.425 4.478 4.478 0 01-2.417.758zm1.41-9.255a2.497 2.497 0 00-1.334.436 4.96 4.96 0 00-1.938 5.17 1.963 1.963 0 003.191 1.197 4.96 4.96 0 001.938-5.17 2.172 2.172 0 00-1.248-1.524 1.722 1.722 0 00-.608-.109z" fill="#3e4147"/><path d="M53.553 187.164c-2.394 6.388-2.095 14.059-12.97 8.33-4.77-1.787-6.694-8.415-4.3-14.803s8.202-10.119 12.971-8.331c11.076 3.86 6.694 8.415 4.3 14.804z" fill="#865da5"/><path d="M46.807 198.516a15.012 15.012 0 01-6.639-2.102 9.177 9.177 0 01-5.387-6.316 16.477 16.477 0 016.554-17.485 9.166 9.166 0 018.272-1.195c4.139 1.441 6.503 3.1 7.419 5.213 1.102 2.54-.091 5.231-1.353 8.08-.4.903-.815 1.837-1.177 2.806-.392 1.044-.715 2.143-1.027 3.206-.945 3.217-1.837 6.256-4.485 7.376a5.523 5.523 0 01-2.177.417zm-.055-25.595a8.057 8.057 0 00-4.33 1.384 14.478 14.478 0 00-5.709 15.233 7.208 7.208 0 004.222 5.014l.116.052c3.306 1.741 5.644 2.283 7.15 1.642 1.769-.748 2.496-3.224 3.337-6.09.323-1.098.656-2.232 1.073-3.346.384-1.024.81-1.985 1.222-2.915 1.125-2.539 2.098-4.732 1.347-6.464-.667-1.539-2.714-2.886-6.257-4.12a6.163 6.163 0 00-2.171-.39z" fill="#3e4147"/><ellipse cx="49.23" cy="185.879" rx="12.353" ry="9.222" transform="rotate(-69.453 49.23 185.88)" fill="#9569b8"/><path d="M47.36 198.895a7.994 7.994 0 01-2.819-.506 9.164 9.164 0 01-5.449-6.339 16.477 16.477 0 016.554-17.485 8.684 8.684 0 0113.722 5.143 15.652 15.652 0 01-.561 9.761c-2.138 5.703-6.883 9.426-11.447 9.426zm3.708-24.025a8.067 8.067 0 00-4.334 1.388 14.476 14.476 0 00-5.71 15.232 7.207 7.207 0 004.223 5.015c4.244 1.591 9.48-1.884 11.676-7.743a13.633 13.633 0 00.512-8.493 7.207 7.207 0 00-4.222-5.014 6.087 6.087 0 00-2.145-.385z" fill="#3e4147"/><ellipse cx="50.274" cy="186.54" rx="4.756" ry="3.55" transform="rotate(-69.453 50.274 186.54)" fill="#865da5"/><path d="M49.572 192.175a3.738 3.738 0 01-1.32-.24 4.132 4.132 0 01-2.475-2.846 6.959 6.959 0 012.783-7.426 3.959 3.959 0 016.211 2.328 6.959 6.959 0 01-2.783 7.426 4.477 4.477 0 01-2.416.758zm1.41-9.254a2.497 2.497 0 00-1.334.435 4.96 4.96 0 00-1.939 5.171 1.963 1.963 0 003.192 1.196 4.96 4.96 0 001.938-5.17 2.173 2.173 0 00-1.248-1.524 1.722 1.722 0 00-.608-.108z" fill="#3e4147"/><path d="M170.732 144.268l13.253 24.69a3.908 3.908 0 01-1.988 5.39l-77.203 31.727a6.186 6.186 0 01-5.234-.238l-58.672-30.75a5.87 5.87 0 01-3.145-5.198v-.347a5.87 5.87 0 014.078-5.589l34.14-10.948 8.989 4.653-34.629 11.13a.746.746 0 00-.094 1.383l49.387 23.688a6.186 6.186 0 004.816.227l66.228-25.397a1.93 1.93 0 001.048-2.694l-10.45-18.478z" fill="#d8e9f7"/><path d="M102.432 207.754a7.387 7.387 0 01-3.432-.848l-58.672-30.749a7.059 7.059 0 01-3.792-6.269v-.345a7.056 7.056 0 014.916-6.74l34.619-11.1 12.011 6.217-36.29 11.663 48.344 23.187a4.999 4.999 0 003.876.183l66.214-25.39a.73.73 0 00.438-.423.719.719 0 00-.031-.593l-11.143-19.7 11.82-4.054 13.739 25.593a5.116 5.116 0 01-2.591 7.078l-77.205 31.728a7.383 7.383 0 01-2.821.562zm-26.58-53.446l-33.663 10.794a4.65 4.65 0 00-3.238 4.44v.346a4.65 4.65 0 002.498 4.13l58.672 30.75a4.97 4.97 0 004.212.19l77.204-31.728a2.7 2.7 0 001.373-3.723l-12.757-23.765-7.13 2.446 9.734 17.212a3.138 3.138 0 01-1.681 4.422l-66.214 25.39a7.439 7.439 0 01-5.77-.264l-49.387-23.689a1.953 1.953 0 01.247-3.62l31.866-10.243z" fill="#3e4147"/><path d="M184.894 91.121L95.75 126.708A2.339 2.339 0 0194 126.62L19.572 94.483a2.599 2.599 0 00-3.525 2.803l27.72 41.507c.873 1.307.76 1.33 1.46 2.302l62.582 32.081a2.342 2.342 0 001.915.108l71.718-27.84a2.766 2.766 0 001.704-2.428l5.052-49.022a2.617 2.617 0 00-3.304-2.873z" fill="#c5a7d4"/><path d="M100.813 154.252l84.74-34.6 2.645-25.658a2.617 2.617 0 00-3.304-2.873L95.75 126.708A2.339 2.339 0 0194 126.62L19.572 94.483a2.599 2.599 0 00-3.525 2.803l16.416 25.551 59.088 28.307c1.51.72 7.687 3.671 9.262 3.108z" fill="#af96c1"/><path d="M109.165 173.168a1.206 1.206 0 01-1.092-.694l-17.88-37.908a1.207 1.207 0 112.184-1.03l17.88 37.909a1.209 1.209 0 01-1.092 1.723zM122.383 160.337a1.208 1.208 0 01-1.097-1.71l16.1-35.25a1.207 1.207 0 112.195 1.004l-16.099 35.25a1.208 1.208 0 01-1.099.706z" fill="#3e4147"/><path d="M108.888 174.644a3.566 3.566 0 01-1.63-.393l-62.582-32.082a1.217 1.217 0 01-.347-.267 12.476 12.476 0 01-1.246-1.666c-.16-.24-.347-.52-.583-.865L15.04 97.953a1.208 1.208 0 01-.197-.577 4.092 4.092 0 011.693-3.671 3.549 3.549 0 013.54-.319l74.402 32.124a1.153 1.153 0 00.879.057L184.446 90c.018-.008.036-.014.054-.02a3.53 3.53 0 013.35.557 4.076 4.076 0 011.552 3.54l-5.055 49.062a3.955 3.955 0 01-2.475 3.433l-71.71 27.838a3.589 3.589 0 01-1.274.234zm-62.907-34.52l62.379 31.978a1.133 1.133 0 00.934.054l71.711-27.838a1.557 1.557 0 00.936-1.386l5.055-49.062a1.652 1.652 0 00-.615-1.417 1.16 1.16 0 00-1.072-.198L96.2 127.83a3.574 3.574 0 01-2.704-.114L19.093 95.592a1.147 1.147 0 00-1.18.096 1.633 1.633 0 00-.663 1.228l27.253 41.106c.233.34.426.63.59.876a11.375 11.375 0 00.888 1.227z" fill="#3e4147"/><path d="M144.106 152.587a1.208 1.208 0 01-1.093-1.718l17.15-36.797a1.207 1.207 0 112.188 1.02l-17.15 36.796a1.208 1.208 0 01-1.095.699zM165.469 144.754a1.209 1.209 0 01-1.108-1.687l15.888-36.788a1.207 1.207 0 112.217.957l-15.888 36.788a1.208 1.208 0 01-1.11.73z" fill="#3e4147"/><path d="M106.25 166.467a1.205 1.205 0 01-.554-.134l-68.508-35.487a1.207 1.207 0 111.11-2.144l68.036 35.242 77.034-28.248a1.208 1.208 0 11.83 2.268l-77.532 28.43a1.216 1.216 0 01-.415.073z" fill="#3e4147"/><path d="M187.374 82.246L93.89 117.833a2.792 2.792 0 01-1.92-.09L16.818 85.609a2.792 2.792 0 00-3.864 2.802l1.29 15.732a2.792 2.792 0 001.6 2.302l75.71 35.629a2.792 2.792 0 002.1.108l94.26-38.483a2.792 2.792 0 001.868-2.428l1.214-16.151a2.792 2.792 0 00-3.622-2.873z" fill="#c5a7d4"/><path d="M92.717 143.54a3.94 3.94 0 01-1.675-.373l-75.711-35.63a4.01 4.01 0 01-2.29-3.296l-1.29-15.732a4 4 0 015.535-4.015l75.159 32.14a1.591 1.591 0 001.082.047l93.485-35.587a4 4 0 015.189 4.116l-1.215 16.151a3.999 3.999 0 01-2.675 3.478l-94.201 38.46a4.224 4.224 0 01-1.393.242zM15.73 86.593a1.596 1.596 0 00-1.574 1.72l1.29 15.732a1.59 1.59 0 00.91 1.306l75.71 35.63a1.561 1.561 0 001.19.06l94.201-38.46a1.612 1.612 0 001.12-1.4l1.214-16.152a1.585 1.585 0 00-2.026-1.64L94.32 118.961a4.047 4.047 0 01-2.816-.104l-75.16-32.14a1.578 1.578 0 00-.612-.125z" fill="#3e4147"/><path d="M92.898 140.539a1.206 1.206 0 01-1.206-1.19l-.27-18.551a1.207 1.207 0 011.19-1.225 1.226 1.226 0 011.225 1.19l.269 18.551a1.207 1.207 0 01-1.19 1.225z" fill="#3e4147"/></g></g></svg>
